<svg width="21" height="21" viewBox="0 0 21 21" fill="none" xmlns="http://www.w3.org/2000/svg">
<g clip-path="url(#clip0_17_2)">
<path d="M10.5789 20.8766C16.1599 20.8766 20.6842 16.2612 20.6842 10.5679C20.6842 4.87461 16.1599 0.259277 10.5789 0.259277C4.99791 0.259277 0.473633 4.87461 0.473633 10.5679C0.473633 16.2612 4.99791 20.8766 10.5789 20.8766Z" fill="#4176FA"/>
<path d="M14.2016 8.775C11.2829 8.775 11.2791 11.7413 11.2791 11.7565C11.2791 11.7565 11.0792 14.7265 14.2016 14.7265C14.2016 14.7265 16.8057 14.8775 16.8057 12.6595H15.4685C15.4685 12.6595 15.5129 13.4945 14.2461 13.4945C14.2461 13.4945 12.909 13.5853 12.909 12.1455H16.8502C16.8502 12.1455 17.2836 8.775 14.2016 8.775ZM12.894 11.1064C12.894 11.1064 13.0571 9.9123 14.2314 9.9123C15.4093 9.9123 15.3907 11.1064 15.3907 11.1064H12.894ZM9.55324 10.3432C9.55324 10.3432 10.7126 10.2563 10.7126 8.86578C10.7126 7.47911 9.76436 6.79883 8.56051 6.79883H4.60059V14.5638H8.56015C8.56015 14.5638 10.979 14.6396 10.979 12.2703C10.9792 12.2703 11.083 10.3432 9.55324 10.3432ZM6.34538 8.17796H8.56033C8.56033 8.17796 9.0975 8.17796 9.0975 8.98651C9.0975 9.79506 8.78262 9.9123 8.42325 9.9123H6.34538V8.17796ZM8.44937 13.1847H6.34538V11.1064H8.56033C8.56033 11.1064 9.36428 11.0988 9.3605 12.1757C9.3605 13.0827 8.76425 13.1772 8.44937 13.1847ZM12.5644 7.25603V8.21214H15.7056V7.25603H12.5644Z" fill="#F1F2F2"/>
</g>
<defs>
<clipPath id="clip0_17_2">
<rect width="20.2105" height="20.6173" fill="white" transform="translate(0.473633 0.259277)"/>
</clipPath>
</defs>
</svg>
