<svg width="21" height="21" viewBox="0 0 21 21" fill="none" xmlns="http://www.w3.org/2000/svg">
<g clip-path="url(#clip0_17_62)">
<path d="M10.3157 20.8766C15.8967 20.8766 20.421 16.2612 20.421 10.5679C20.421 4.87461 15.8967 0.259277 10.3157 0.259277C4.73473 0.259277 0.210449 4.87461 0.210449 10.5679C0.210449 16.2612 4.73473 20.8766 10.3157 20.8766Z" fill="#F26798"/>
<path d="M10.3155 4.021C6.77243 4.021 3.88989 6.95805 3.88989 10.5679C3.88989 14.1777 6.77243 17.1145 10.3155 17.1145C13.8588 17.1145 16.7415 14.1779 16.7415 10.5679C16.7415 6.95805 13.8588 4.021 10.3155 4.021ZM14.5438 7.11094C15.2768 8.03765 15.7223 9.20803 15.7428 10.4833C15.4989 10.4322 14.466 10.2358 13.2317 10.2358C12.8335 10.2358 12.4143 10.2562 11.994 10.3091C11.9585 10.2211 11.9231 10.1334 11.8858 10.0449C11.7768 9.78338 11.6593 9.52391 11.5377 9.2683C13.4375 8.46986 14.3538 7.36178 14.5438 7.11094ZM10.3155 5.04583C11.6847 5.04583 12.9363 5.56477 13.8923 6.41945C13.741 6.63004 12.9203 7.67656 11.0885 8.38257C10.2406 6.80149 9.31252 5.49219 9.09168 5.18825C9.48527 5.09526 9.8949 5.04583 10.3155 5.04583ZM7.98366 5.58242C8.17082 5.84538 9.10032 7.16864 9.97002 8.73705C7.636 9.36294 5.56335 9.40373 5.06312 9.40373H5.00998C5.36935 7.71423 6.48835 6.31029 7.98366 5.58242ZM4.88676 10.5765C4.88676 10.5309 4.88748 10.4854 4.88893 10.44C4.92135 10.4403 4.96927 10.4403 5.03141 10.4403C5.70512 10.4403 8.04364 10.3835 10.4535 9.65402C10.5998 9.94583 10.739 10.2421 10.8685 10.5381C10.8076 10.5559 10.7477 10.5737 10.688 10.5936C7.97465 11.4876 6.48331 13.8542 6.25382 14.2411C5.40357 13.2638 4.88676 11.9808 4.88676 10.5765ZM10.3155 16.1068C9.07042 16.1068 7.92133 15.6766 7.00444 14.9553C7.15954 14.6452 8.28521 12.5777 11.2587 11.5219C11.2605 11.5212 11.2625 11.5205 11.2647 11.5199C12.0102 13.5001 12.326 15.1621 12.4127 15.6772C11.7674 15.9539 11.0588 16.1068 10.3155 16.1068ZM13.3904 15.1319C13.3177 14.7058 13.0251 13.1482 12.35 11.2485C12.7286 11.1884 13.097 11.1647 13.4425 11.1647C14.5772 11.1647 15.4647 11.4181 15.671 11.4824C15.4258 12.9909 14.5792 14.2964 13.3904 15.1319Z" fill="#F1F2F2"/>
</g>
<defs>
<clipPath id="clip0_17_62">
<rect width="20.2105" height="20.6173" fill="white" transform="translate(0.210449 0.259277)"/>
</clipPath>
</defs>
</svg>
