<svg width="21" height="21" viewBox="0 0 21 21" fill="none" xmlns="http://www.w3.org/2000/svg">
<g clip-path="url(#clip0_17_23)">
<path d="M10.2105 20.8766C15.7915 20.8766 20.3158 16.2612 20.3158 10.5679C20.3158 4.87461 15.7915 0.259277 10.2105 0.259277C4.62951 0.259277 0.105225 4.87461 0.105225 10.5679C0.105225 16.2612 4.62951 20.8766 10.2105 20.8766Z" fill="#3B5998"/>
<path d="M12.7509 10.9713H10.9478V17.7102H8.21582V10.9713H6.9165V8.60297H8.21582V7.0704C8.21582 5.97445 8.72615 4.2583 10.9721 4.2583L12.9957 4.26694V6.56579H11.5274C11.2866 6.56579 10.9479 6.68854 10.9479 7.21135V8.60518H12.9896L12.7509 10.9713Z" fill="white"/>
</g>
<defs>
<clipPath id="clip0_17_23">
<rect width="20.2105" height="20.6173" fill="white" transform="translate(0.105225 0.259277)"/>
</clipPath>
</defs>
</svg>
