<svg width="22" height="21" viewBox="0 0 22 21" fill="none" xmlns="http://www.w3.org/2000/svg">
<g clip-path="url(#clip0_17_42)">
<path d="M10.9476 20.8772C16.5285 20.8772 21.0527 16.2619 21.0527 10.5687C21.0527 4.87551 16.5285 0.260254 10.9476 0.260254C5.36673 0.260254 0.842529 4.87551 0.842529 10.5687C0.842529 16.2619 5.36673 20.8772 10.9476 20.8772Z" fill="#CB2027"/>
<path d="M11.763 14.0635C10.999 14.0032 10.678 13.6168 10.0789 13.2458C9.74962 15.0082 9.34721 16.6977 8.15527 17.5802C7.7869 14.9165 8.69531 12.9157 9.11718 10.792C8.39809 9.55718 9.20364 7.07167 10.7204 7.68414C12.5871 8.43718 9.10421 12.2757 11.4423 12.7551C13.8833 13.2557 14.8798 8.43442 13.366 6.86623C11.1788 4.60215 6.99954 6.81478 7.51346 10.0559C7.63865 10.8483 8.44132 11.0888 7.83409 12.1822C6.43428 11.8659 6.01673 10.7397 6.07041 9.23818C6.15706 6.78041 8.23525 5.05952 10.3197 4.82137C12.956 4.52037 15.4303 5.80888 15.7718 8.3385C16.156 11.1935 14.5817 14.2855 11.763 14.0635Z" fill="#F1F2F2"/>
</g>
<defs>
<clipPath id="clip0_17_42">
<rect width="20.2105" height="20.6173" fill="white" transform="translate(0.842041 0.259277)"/>
</clipPath>
</defs>
</svg>
